<?xml version="1.0" encoding="UTF-8" standalone="no"?>
<!-- Created with Inkscape (http://www.inkscape.org/) -->

<svg
   width="15"
   height="15"
   viewBox="0 0 3.9687499 3.9687501"
   version="1.1"
   id="svg5"
   inkscape:export-filename="bitmap.svg"
   inkscape:export-xdpi="96"
   inkscape:export-ydpi="96"
   sodipodi:docname="arrow.svg"
   inkscape:version="1.2.2 (b0a8486541, 2022-12-01)"
   xmlns:inkscape="http://www.inkscape.org/namespaces/inkscape"
   xmlns:sodipodi="http://sodipodi.sourceforge.net/DTD/sodipodi-0.dtd"
   xmlns="http://www.w3.org/2000/svg"
   xmlns:svg="http://www.w3.org/2000/svg">
  <sodipodi:namedview
     id="namedview7"
     pagecolor="#ffffff"
     bordercolor="#666666"
     borderopacity="1.0"
     inkscape:showpageshadow="2"
     inkscape:pageopacity="0.0"
     inkscape:pagecheckerboard="0"
     inkscape:deskcolor="#d1d1d1"
     inkscape:document-units="mm"
     showgrid="false"
     inkscape:zoom="11.794552"
     inkscape:cx="12.124241"
     inkscape:cy="1.2293811"
     inkscape:window-width="1440"
     inkscape:window-height="765"
     inkscape:window-x="0"
     inkscape:window-y="32"
     inkscape:window-maximized="1"
     inkscape:current-layer="layer1" />
  <defs
     id="defs2" />
  <g
     inkscape:label="Layer 1"
     inkscape:groupmode="layer"
     id="layer1">
    <path
       d="m 2.6188851,-0.02645617 c 0.028778,0.0049597 0.049121,0.0267823673 0.069465,0.04860504 L 2.9969712,0.34601713 3.2743333,0.63566348 3.5288713,0.90199925 3.748677,1.1321292 c 0.06748,0.070428 0.1339674,0.1418474 0.2024396,0.2107873 0.048129,0.048605 0.046641,0.1547425 -0.00397,0.2043395 C 3.8603156,1.633059 3.7769584,1.7238212 3.6921123,1.8125997 L 3.4078041,2.1096855 3.1607087,2.3685818 2.9275062,2.6121029 2.703235,2.8476886 C 2.694795,2.856616 2.685869,2.8645515 2.678426,2.8739749 2.619381,2.9483704 2.5380083,2.8933179 2.5211384,2.82289 2.5176684,2.8080109 2.5166684,2.79214 2.5166684,2.7767649 V 2.1553148 2.1295243 c -0.041679,0 -0.081869,-0.00149 -0.121563,4.967e-4 -0.067976,0.00248 -0.1364482,0.00546 -0.2044242,0.011407 a 3.113005,3.1117143 0 0 0 -0.19202,0.021823 C 1.9296922,2.173171 1.8607244,2.184578 1.7922522,2.197473 1.6726739,2.219792 1.5550803,2.25203 1.4384791,2.291707 A 2.307216,2.3062595 0 0 0 0.96661617,2.5134049 2.0392813,2.0384358 0 0 0 0.12907193,3.529647 1.8457728,1.8450076 0 0 0 0.01941714,3.9373342 c 0,0.00149 -0.0014885,0.00347 -0.0019847,0.00496 v -0.090266 c 9.9236e-4,-0.00595 0.0024809,-0.011903 0.002977,-0.018351 C 0.02834824,3.7334905 0.03380618,3.6323127 0.04372969,3.5326229 0.05960731,3.3768883 0.08441608,3.2226417 0.11567514,3.070379 A 4.0954325,4.0937345 0 0 1 0.43521671,2.0962945 C 0.583077,1.791769 0.76914281,1.5259292 1.00433,1.3101825 A 2.0194343,2.018597 0 0 1 1.5774127,0.93919698 1.8725663,1.8717899 0 0 1 1.9902307,0.81173275 4.2472622,4.2455012 0 0 1 2.2963709,0.76808741 c 0.069465,-0.00744 0.1394253,-0.006448 0.20889,-0.008927 0.00347,0 0.00695,-9.9201e-4 0.011412,-0.001984 V 0.73188162 0.10646374 c 0,-0.04215744 0.011412,-0.07737128 0.039694,-0.10167381 0.016374,-0.01388715 0.037709,-0.02033475 0.05706,-0.02975819 0.00149,-0.0014878 0.00347,-0.0014878 0.00546,-0.0014878 z"
       id="path686"
       style="stroke-width:0.00496072;fill:#1ab22c;fill-opacity:1" />
  </g>
</svg>
