<?xml version="1.0" encoding="UTF-8" standalone="no"?>
<!-- Created with Inkscape (http://www.inkscape.org/) -->

<svg
   width="30"
   height="30"
   viewBox="0 0 7.9374998 7.9375"
   version="1.1"
   id="svg5"
   inkscape:export-filename="bitmap.svg"
   inkscape:export-xdpi="96"
   inkscape:export-ydpi="96"
   sodipodi:docname="arrow-big.svg"
   inkscape:version="1.2.2 (b0a8486541, 2022-12-01)"
   xmlns:inkscape="http://www.inkscape.org/namespaces/inkscape"
   xmlns:sodipodi="http://sodipodi.sourceforge.net/DTD/sodipodi-0.dtd"
   xmlns="http://www.w3.org/2000/svg"
   xmlns:svg="http://www.w3.org/2000/svg">
  <sodipodi:namedview
     id="namedview7"
     pagecolor="#ffffff"
     bordercolor="#666666"
     borderopacity="1.0"
     inkscape:showpageshadow="2"
     inkscape:pageopacity="0.0"
     inkscape:pagecheckerboard="0"
     inkscape:deskcolor="#d1d1d1"
     inkscape:document-units="mm"
     showgrid="false"
     inkscape:zoom="2.4752179"
     inkscape:cx="-37.976455"
     inkscape:cy="24.846298"
     inkscape:window-width="1440"
     inkscape:window-height="765"
     inkscape:window-x="0"
     inkscape:window-y="32"
     inkscape:window-maximized="1"
     inkscape:current-layer="layer1" />
  <defs
     id="defs2" />
  <g
     inkscape:label="Layer 1"
     inkscape:groupmode="layer"
     id="layer1">
    <path
       d="m 5.2032254,5.6e-5 c 0.05756,0.0099 0.098248,0.05357 0.1389388,0.09721 l 0.6172803,0.647736 0.5547582,0.579293 0.5091074,0.532671 0.4396389,0.46026 c 0.1349683,0.140856 0.2679512,0.2836949 0.4049039,0.4215751 0.096264,0.09721 0.093288,0.309485 -0.00794,0.408679 -0.1736727,0.171606 -0.3403974,0.35313 -0.5101001,0.530687 l -0.5686513,0.594172 -0.4942214,0.517792 -0.4664336,0.487042 -0.4485704,0.471172 c -0.016881,0.01786 -0.034734,0.03373 -0.049621,0.05257 -0.1180973,0.148791 -0.2808526,0.03869 -0.3145946,-0.10217 -0.00694,-0.02976 -0.00894,-0.0615 -0.00894,-0.09225 v -1.2429 -0.05158 c -0.083363,0 -0.1637481,-0.003 -0.243141,9.93e-4 -0.1359604,0.005 -0.2729132,0.01092 -0.4088736,0.02281 a 6.2263945,6.223428 0 0 0 -0.384068,0.04365 c -0.1379422,0.01984 -0.2758863,0.04265 -0.4128392,0.06844 -0.2391713,0.04464 -0.4743731,0.109114 -0.7075899,0.188468 A 4.6147172,4.6125186 0 0 0 1.8984849,5.0797771 4.0788144,4.0768712 0 0 0 0.22329283,7.1122611 3.6917735,3.6900149 0 0 0 0.0039697,7.9276361 c 0,0.003 -0.0029772,0.0069 -0.0039697,0.0099 v -0.180532 c 0.0019848,-0.0119 0.0049621,-0.02381 0.0059544,-0.0367 0.01587856,-0.200374 0.02679512,-0.402729 0.04664336,-0.602109 0.0317572,-0.311469 0.0813778,-0.619962 0.1438998,-0.924488 a 8.1913707,8.1874682 0 0 1 0.63912262,-1.94815 C 1.1313579,3.6365061 1.5035124,3.1048261 1.9739158,2.6733331 A 4.039118,4.0371936 0 0 1 3.120152,1.931362 3.7453638,3.7435795 0 0 1 3.9458389,1.676433 8.4950491,8.4910016 0 0 1 4.5581574,1.589143 c 0.1389383,-0.01488 0.2788675,-0.0129 0.4178056,-0.01785 0.00694,0 0.013901,-0.002 0.022825,-0.004 V 1.516703 0.265868 c 0,-0.08432 0.022825,-0.154743 0.079393,-0.203348 C 5.110931,0.03475 5.153604,0.02185 5.1923084,0.003 5.1952884,0 5.1992484,0 5.2032294,0 Z"
       id="path686"
       style="fill:#1ab22c;fill-opacity:1;stroke-width:0.00992175" />
  </g>
</svg>
